<?xml version="1.0" encoding="utf-8"?>
<!-- Generator: Adobe Illustrator 25.0.0, SVG Export Plug-In . SVG Version: 6.00 Build 0)  -->
<svg version="1.1" id="Layer_1" xmlns="http://www.w3.org/2000/svg" xmlns:xlink="http://www.w3.org/1999/xlink" x="0px" y="0px"
	 viewBox="0 0 1080 300" style="enable-background:new 0 0 1080 300;" xml:space="preserve">
<style type="text/css">
	.st0{fill:url(#SVGID_1_);}
	.st1{fill:#FFFFFF;}
	.st2{fill:#014073;}
	.st3{clip-path:url(#SVGID_3_);fill:#C9C9C9;}
	.st4{clip-path:url(#SVGID_5_);fill:#C9C9C9;}
	.st5{clip-path:url(#SVGID_7_);fill:#C9C9C9;}
	.st6{clip-path:url(#SVGID_9_);fill:#C9C9C9;}
	.st7{opacity:0.61;}
	.st8{clip-path:url(#SVGID_11_);fill:url(#SVGID_12_);}
	.st9{fill:url(#SVGID_13_);}
	.st10{opacity:0.62;}
	.st11{clip-path:url(#SVGID_15_);fill:url(#SVGID_16_);}
</style>
<g>
	
		<linearGradient id="SVGID_1_" gradientUnits="userSpaceOnUse" x1="-125.2919" y1="155.7792" x2="-40.5715" y2="106.8658" gradientTransform="matrix(-1 0 0 1 129.6434 0)">
		<stop  offset="0.1453" style="stop-color:#FF6F46"/>
		<stop  offset="0.6313" style="stop-color:#FFCA55"/>
		<stop  offset="0.7184" style="stop-color:#FECB51"/>
		<stop  offset="0.806" style="stop-color:#FCCC45"/>
		<stop  offset="0.8937" style="stop-color:#F9CF31"/>
		<stop  offset="0.9811" style="stop-color:#F4D315"/>
		<stop  offset="0.9832" style="stop-color:#F4D314"/>
	</linearGradient>
	<path class="st0" d="M231.33,107.5c0,0,47.93,34.56,5.8,72.65c0,0,1.26-23.21-23.96-29.77s-41.87-5.04-53.22-25.73
		c0,0,18.92,9.08,39.6,6.31c20.68-2.77,27.24-6.05,37.33,7.82C236.88,138.78,242.43,131.97,231.33,107.5z"/>
	<g>
		<path class="st1" d="M225.92,115.51c0,0,0-51.21-85.76-51.96c-56.31-0.5-70.38-28.5-70.38-28.5S83.4,78.94,140.91,80.2
			c0,0-51.46,20.18-106.2-5.8c0,0,32.04,52.97,119.06,34.81C153.78,109.21,206.75,92.06,225.92,115.51z"/>
		<path class="st2" d="M226.67,117.62l-1.33-1.63c-18.62-22.79-70.81-6.24-71.33-6.07c-45.27,9.45-75.43-0.58-92.77-10.66
			C42.4,88.32,34.16,74.92,34.08,74.79l-1.29-2.14l2.26,1.07c45.35,21.53,88.89,11.02,101.77,7.06
			c-27.53-1.63-44.26-13.33-53.58-23.12c-10.59-11.13-14.03-21.94-14.17-22.4l1.39-0.56c0.14,0.28,14.59,27.6,69.71,28.09
			c44.59,0.39,65.73,14.65,75.61,26.54c10.77,12.96,10.89,25.64,10.89,26.18V117.62z M191.63,102.33c12.48,0,25.23,2.57,33.37,11.01
			c-0.52-4.16-2.54-13.67-10.44-23.12c-9.69-11.61-30.46-25.53-74.41-25.92c-40.82-0.36-59.77-15.35-67.12-23.6
			c2.12,4.18,5.71,10.08,11.34,15.99c9.57,10.03,27.14,22.12,56.56,22.76l3.74,0.08l-3.48,1.37c-0.51,0.2-50.8,19.39-104.28-4.66
			c3.14,4.22,11.18,13.67,25.16,21.77c17.11,9.92,46.88,19.79,91.56,10.46C154.86,108.07,172.95,102.33,191.63,102.33z"/>
	</g>
	<g>
		<defs>
			<path id="SVGID_2_" d="M226.43,114c0,0,0-51.21-85.76-51.96c-56.31-0.5-70.38-28.5-70.38-28.5s13.62,43.89,71.13,45.15
				c0,0-51.46,20.18-106.2-5.8c0,0,32.04,52.97,119.06,34.81C154.28,107.69,207.26,90.54,226.43,114z"/>
		</defs>
		<clipPath id="SVGID_3_">
			<use xlink:href="#SVGID_2_"  style="overflow:visible;"/>
		</clipPath>
		<path class="st3" d="M226.43,116.27c0,0-10.59-28-62.05-19.93c0,0-2.02-6.05,26.74-6.56c0,0-23.46-6.81-51.46,6.05
			s-85.01,6.31-107.71-25.73c0,0,29.26,64.32,135.46,35.82C167.4,105.93,198.93,95.33,226.43,116.27z"/>
	</g>
	<g>
		<path class="st1" d="M103.08,124.6c0,0-47.67,18.41-40.36,77.19C62.72,201.78,24.12,138.22,103.08,124.6z"/>
		<path class="st2" d="M63.89,205.17l-1.82-2.99c-0.17-0.27-16.39-27.45-6.08-50.09c6.6-14.49,22.4-23.99,46.96-28.23l0.4,1.44
			c-0.12,0.05-11.93,4.7-22.69,16.41c-9.91,10.78-20.94,29.94-17.2,59.98L63.89,205.17z M97.69,126.41
			c-20.9,4.55-34.45,13.39-40.33,26.3c-7.88,17.32,0.33,37.49,4.21,45.33c-2.45-28.45,8.32-46.84,18.03-57.4
			C86.17,133.51,93.12,128.94,97.69,126.41z"/>
	</g>
	<g>
		<defs>
			<path id="SVGID_4_" d="M96.17,128.04c0,0-41.06,16.31-34.76,68.36C61.41,196.4,28.17,140.11,96.17,128.04z"/>
		</defs>
		<clipPath id="SVGID_5_">
			<use xlink:href="#SVGID_4_"  style="overflow:visible;"/>
		</clipPath>
		<path class="st4" d="M97.04,128.04c0,0-38.89,16.75-35.63,68.36c0,0-6.52-29.71,5.87-44.9c0,0-4.78,1.56-6.73,10.72
			C60.54,162.22,63.15,137.87,97.04,128.04z"/>
	</g>
	<g>
		<path class="st1" d="M190.86,189.42c0,0-54.74-11.86-43.39-62.56c0,0-61.3,76.43,51.96,102.16c0,0-48.43-21.95-49.69-47.93
			C149.74,181.1,165.63,195.73,190.86,189.42z"/>
		<path class="st2" d="M206.48,231.4l-7.21-1.64c-37.02-8.41-59.43-23.12-66.62-43.72c-10.07-28.85,13.99-59.33,14.24-59.64
			l2.02-2.52l-0.71,3.16c-3.16,14.1-1.42,26.47,5.17,36.78c12.25,19.18,37.39,24.83,37.65,24.88l3.14,0.68l-3.12,0.78
			c-21.07,5.27-35.91-4.01-40.39-7.37c3.22,24.5,48.63,45.34,49.1,45.56L206.48,231.4z M146.07,130.07
			c-5.51,8.02-20.08,32.36-12,55.48c6.58,18.84,26.4,32.67,58.96,41.15c-13.19-6.9-43.03-24.77-44.04-45.56l-0.09-1.82l1.34,1.24
			c0.15,0.14,14.65,13.15,37.47,8.8c-7.18-2.16-25.57-9.02-35.6-24.72C145.83,154.8,143.81,143.19,146.07,130.07z"/>
	</g>
	<g>
		<defs>
			<path id="SVGID_6_" d="M185.14,188.21c0,0-49.37-11.39-39.13-60.09c0,0-55.28,73.41,46.86,98.12c0,0-43.68-21.08-44.82-46.03
				C148.06,180.22,162.39,194.27,185.14,188.21z"/>
		</defs>
		<clipPath id="SVGID_7_">
			<use xlink:href="#SVGID_6_"  style="overflow:visible;"/>
		</clipPath>
		<path class="st5" d="M187.65,187.73c0,0-53.23-16.48-40.95-60.81c0,0-13.65,28.35,6.37,46.52c0,0-9.1,0.24-14.56-16.23
			c0,0-14.1,46.52,56.65,69.05c0,0-32.88-17.77-45.9-44.14C149.25,182.11,165.35,197.42,187.65,187.73z"/>
	</g>
	<g>
		<path class="st1" d="M201.96,278.21c0,0-3.28-27.24-54.49-55.49s-25.98-69.12-25.98-69.12s-19.42,10.34-18.41,26.23
			c0,0-2.02-29.77,25.73-52.97c0,0-68.11,18.16-48.94,89.04c0,0,1.01-24.97,8.83-32.54c0,0-11.35,38.34,50.45,57.51
			C139.15,240.88,178.25,252.74,201.96,278.21z"/>
		<path class="st2" d="M202.98,280.41l-1.57-1.69c-23.3-25.04-62.09-37.01-62.48-37.13c-32.21-9.99-44.36-25.3-48.88-36.38
			c-3.34-8.19-3.16-15.22-2.66-19.04c-5.87,9.1-6.76,29.53-6.77,29.75l-0.2,4.88l-1.28-4.72c-5.84-21.6-4.21-40.52,4.85-56.23
			c14.7-25.5,44.32-33.65,44.62-33.73l3.27-0.87l-2.6,2.17c-16.83,14.07-22.58,30.7-24.52,41.38c4.98-9.7,15.77-15.56,16.38-15.88
			l2.44-1.3l-1.45,2.36c-0.1,0.16-9.52,15.76-4.73,33.95c3.54,13.44,13.78,24.92,30.44,34.11c50.96,28.11,54.73,54.93,54.87,56.06
			L202.98,280.41z M90.22,180.85l-0.8,2.73c-0.03,0.09-2.71,9.55,2.06,21.16c4.42,10.75,16.31,25.63,47.89,35.42
			c0.38,0.12,37.47,11.56,61.19,35.51c-2.31-7.45-12.37-29.63-53.45-52.3c-17.04-9.4-27.53-21.2-31.17-35.06
			c-3.82-14.53,1.13-27.45,3.63-32.66c-4.74,3.1-15.26,11.2-15.76,22.2c-0.02,1.16,0.01,1.83,0.02,1.93c0,0,0,0.01,0,0.01l-1.5,0.1
			c0,0,0,0,0,0c-0.05-0.81-0.05-1.6-0.01-2.38c0.21-7.28,2.61-29.85,23.23-48.78c-8.17,2.96-28.84,12.08-40.26,31.91
			c-8.2,14.23-10.16,31.2-5.83,50.49c0.71-7.71,2.82-22.59,8.72-28.29L90.22,180.85z"/>
	</g>
	<g>
		<defs>
			<path id="SVGID_8_" d="M200.45,279.22c0,0-3.28-27.24-54.49-55.49s-25.98-69.12-25.98-69.12s-19.42,10.34-18.41,26.23
				c0,0-2.02-29.77,25.73-52.97c0,0-68.11,18.16-48.94,89.04c0,0,1.01-24.97,8.83-32.54c0,0-11.35,38.34,50.45,57.51
				C137.64,241.89,176.73,253.75,200.45,279.22z"/>
		</defs>
		<clipPath id="SVGID_9_">
			<use xlink:href="#SVGID_8_"  style="overflow:visible;"/>
		</clipPath>
		<path class="st6" d="M119.98,154.61c0,0-14.88,39.86,14.63,58.77s59.78,35.82,67.85,62.81c0,0-19.17-25.22-49.44-37.59
			s-39.86-21.95-46.41-43.89c0,0-3.53,12.61,8.83,26.23c0,0-27.5-10.34-15.64-61.3c0,0-5.8,2.27-8.58,17.15
			c0,0-7.32-27.75,37.33-50.2L119.98,154.61z"/>
	</g>
	<g class="st7">
		<defs>
			<path id="SVGID_10_" class="st7" d="M231.22,107.44c0,0,47.93,34.56,5.8,72.65c0,0,1.26-23.21-23.96-29.77
				s-41.87-5.04-53.22-25.73c0,0,18.92,9.08,39.6,6.31c20.68-2.77,27.24-6.05,37.33,7.82C236.77,138.72,242.32,131.91,231.22,107.44
				z"/>
		</defs>
		<clipPath id="SVGID_11_">
			<use xlink:href="#SVGID_10_"  style="overflow:visible;"/>
		</clipPath>
		
			<linearGradient id="SVGID_12_" gradientUnits="userSpaceOnUse" x1="-119.6443" y1="157.7662" x2="-46.0813" y2="157.7662" gradientTransform="matrix(-1 0 0 1 129.6434 0)">
			<stop  offset="0" style="stop-color:#FC5E03"/>
			<stop  offset="1" style="stop-color:#FFFFFF"/>
		</linearGradient>
		<path class="st8" d="M237.02,180.09c0,0,1.26-25.48-29.01-31.28s-32.29-13.37-32.29-13.37s19.17,8.58,30.77,8.07
			s19.17,5.8,25.22,11.86c0,0,0-8.32-8.58-11.86c0,0,7.06-2.27,11.35,7.32c0,0,0.25-7.82-5.3-8.58c0,0,3.53-3.78,12.11,9.33
			c0,0-0.25-10.09-9.84-13.87c0,0,23.21,5.8,16.65,27.5C245.01,175.48,237.02,180.09,237.02,180.09z"/>
	</g>
	
		<linearGradient id="SVGID_13_" gradientUnits="userSpaceOnUse" x1="-80.0914" y1="135.3726" x2="2.4587" y2="87.7123" gradientTransform="matrix(-1 0 0 1 129.6434 0)">
		<stop  offset="0.1453" style="stop-color:#FF6F46"/>
		<stop  offset="0.6313" style="stop-color:#FFCA55"/>
		<stop  offset="0.7184" style="stop-color:#FECB51"/>
		<stop  offset="0.806" style="stop-color:#FCCC45"/>
		<stop  offset="0.8937" style="stop-color:#F9CF31"/>
		<stop  offset="0.9811" style="stop-color:#F4D315"/>
		<stop  offset="0.9832" style="stop-color:#F4D314"/>
	</linearGradient>
	<path class="st9" d="M217.85,121.32c0,0-2.02-11.6-23.96-10.34c0,0-5.55,0.76-15.64-0.5c0,0-8.61-1.9-32.05,0.8
		c-2.48,0.29-5,0.22-7.46-0.23c-5.27-0.96-12.35-3.1-19.01-10.41c0,0,5.04,16.9,32.04,14.88s36.07,7.32,45.4,9.33
		C201.39,125.76,211.54,127.12,217.85,121.32z"/>
	<g class="st10">
		<defs>
			<path id="SVGID_14_" class="st10" d="M217.6,121.32c0,0-2.02-11.6-23.96-10.34c0,0-5.55,0.76-15.64-0.5c0,0-8.61-1.9-32.05,0.8
				c-2.48,0.29-5,0.22-7.46-0.23c-5.27-0.96-12.35-3.1-19.01-10.41c0,0,5.04,16.9,32.04,14.88s36.07,7.32,45.4,9.33
				C201.13,125.76,211.29,127.12,217.6,121.32z"/>
		</defs>
		<clipPath id="SVGID_15_">
			<use xlink:href="#SVGID_14_"  style="overflow:visible;"/>
		</clipPath>
		
			<linearGradient id="SVGID_16_" gradientUnits="userSpaceOnUse" x1="-87.9545" y1="120.8266" x2="-29.4329" y2="120.8266" gradientTransform="matrix(-1 0 0 1 129.6434 0)">
			<stop  offset="0.486" style="stop-color:#FC5E03"/>
			<stop  offset="1" style="stop-color:#FFFFFF"/>
			<stop  offset="1" style="stop-color:#FFFFFF"/>
		</linearGradient>
		<path class="st11" d="M217.6,121.32c0,0-9.59,3.53-27.75-3.53c-18.16-7.06-30.77-0.76-30.77-0.76s11.1-1.26,23.46,5.3
			C194.9,128.88,209.53,129.14,217.6,121.32z"/>
	</g>
	<g>
		<path class="st2" d="M383.51,113.79V222.1h-26.35v-45.2H316.1v45.2h-26.2V113.79h26.2v41.98h41.06v-41.98H383.51z"/>
		<path class="st2" d="M464.32,140.83c6.69,3.52,11.95,8.61,15.78,15.24c3.83,6.64,5.75,14.4,5.75,23.29s-1.92,16.65-5.75,23.29
			c-3.83,6.64-9.09,11.72-15.78,15.24c-6.69,3.52-14.27,5.29-22.75,5.29c-8.48,0-16.09-1.76-22.83-5.29
			c-6.74-3.52-12.03-8.6-15.86-15.24c-3.83-6.64-5.75-14.4-5.75-23.29s1.92-16.65,5.75-23.29c3.83-6.64,9.12-11.72,15.86-15.24
			c6.74-3.52,14.35-5.29,22.83-5.29C450.05,135.54,457.63,137.31,464.32,140.83z M428.93,163.66c-3.42,3.63-5.13,8.86-5.13,15.7
			c0,6.84,1.71,12.05,5.13,15.63c3.42,3.58,7.63,5.36,12.64,5.36c5,0,9.19-1.79,12.56-5.36c3.37-3.57,5.06-8.78,5.06-15.63
			c0-6.84-1.69-12.08-5.06-15.7c-3.37-3.62-7.56-5.44-12.56-5.44C436.56,158.22,432.35,160.03,428.93,163.66z"/>
		<path class="st2" d="M556.55,143.66c6.49,5.42,10.54,12.56,12.18,21.45h-24.51c-0.71-3.47-2.32-6.21-4.82-8.2
			c-2.5-1.99-5.64-2.99-9.42-2.99c-2.96,0-5.21,0.64-6.74,1.92c-1.53,1.28-2.3,3.09-2.3,5.44c0,2.66,1.4,4.65,4.21,5.97
			c2.81,1.33,7.22,2.66,13.25,3.98c6.53,1.53,11.9,3.09,16.09,4.67c4.19,1.58,7.81,4.16,10.88,7.74c3.06,3.58,4.6,8.38,4.6,14.4
			c0,4.9-1.33,9.24-3.98,13.02c-2.66,3.78-6.49,6.74-11.49,8.89c-5.01,2.14-10.93,3.22-17.77,3.22c-11.54,0-20.79-2.55-27.73-7.66
			c-6.95-5.11-11.18-12.41-12.72-21.91h25.28c0.41,3.68,1.96,6.49,4.67,8.43c2.71,1.94,6.21,2.91,10.49,2.91
			c2.96,0,5.21-0.69,6.74-2.07s2.3-3.19,2.3-5.44c0-2.96-1.41-5.08-4.21-6.36c-2.81-1.28-7.38-2.63-13.71-4.06
			c-6.33-1.33-11.54-2.76-15.63-4.29c-4.09-1.53-7.61-4.01-10.57-7.43c-2.96-3.42-4.44-8.09-4.44-14.02
			c0-7.66,2.91-13.87,8.73-18.61c5.82-4.75,14.04-7.12,24.67-7.12C541.4,135.54,550.06,138.25,556.55,143.66z"/>
		<path class="st2" d="M632.92,199.58v22.52h-11.8c-10.01,0-17.8-2.48-23.36-7.43c-5.57-4.95-8.35-13.15-8.35-24.59v-31.41h-11.49
			v-22.06h11.49v-20.99h26.2v20.99h17.16v22.06h-17.16v31.87c0,3.37,0.69,5.72,2.07,7.05c1.38,1.33,3.7,1.99,6.97,1.99H632.92z"/>
		<path class="st2" d="M649.46,102.68c2.86-2.6,6.64-3.91,11.34-3.91c4.7,0,8.48,1.3,11.34,3.91c2.86,2.6,4.29,5.9,4.29,9.88
			c0,3.88-1.43,7.12-4.29,9.73c-2.86,2.6-6.64,3.91-11.34,3.91c-4.7,0-8.48-1.3-11.34-3.91c-2.86-2.6-4.29-5.85-4.29-9.73
			C645.17,108.58,646.6,105.29,649.46,102.68z M673.82,136.62v85.49h-26.2v-85.49H673.82z"/>
		<path class="st2" d="M776.16,122.67c8.78,6.64,14.25,15.63,16.39,26.96h-27.73c-1.84-3.88-4.65-6.97-8.43-9.27
			c-3.78-2.3-8.33-3.45-13.63-3.45c-8.27,0-14.91,2.78-19.92,8.35c-5.01,5.57-7.51,13.1-7.51,22.6c0,10.32,2.63,18.23,7.89,23.75
			c5.26,5.51,12.74,8.27,22.44,8.27c6.23,0,11.69-1.71,16.39-5.13c4.7-3.42,8.02-8.3,9.96-14.63h-33.09v-18.84h55v25.89
			c-2.04,6.33-5.31,12.21-9.8,17.62c-4.5,5.42-10.24,9.81-17.24,13.18c-7,3.37-14.99,5.06-23.98,5.06
			c-10.93,0-20.48-2.32-28.65-6.97c-8.17-4.65-14.48-11.16-18.92-19.53c-4.44-8.37-6.66-17.92-6.66-28.65s2.22-20.27,6.66-28.65
			c4.44-8.37,10.72-14.88,18.84-19.53c8.12-4.65,17.59-6.97,28.42-6.97C756.19,112.72,767.38,116.04,776.16,122.67z"/>
		<path class="st2" d="M857.97,139.99c4.7,2.96,8.17,7,10.42,12.1v-15.47h26.04v85.49h-26.04v-15.47
			c-2.25,5.11-5.72,9.14-10.42,12.1c-4.7,2.96-10.32,4.44-16.85,4.44c-7.05,0-13.36-1.76-18.92-5.29
			c-5.57-3.52-9.96-8.6-13.18-15.24c-3.22-6.64-4.83-14.4-4.83-23.29c0-8.99,1.61-16.78,4.83-23.36
			c3.22-6.59,7.61-11.64,13.18-15.17c5.57-3.52,11.87-5.29,18.92-5.29C847.65,135.54,853.27,137.03,857.97,139.99z M835.99,164.04
			c-3.42,3.68-5.13,8.79-5.13,15.32c0,6.54,1.71,11.64,5.13,15.32c3.42,3.68,7.94,5.52,13.56,5.52c5.52,0,10.04-1.89,13.56-5.67
			c3.52-3.78,5.29-8.83,5.29-15.17c0-6.43-1.76-11.51-5.29-15.24c-3.52-3.73-8.04-5.59-13.56-5.59
			C843.93,158.52,839.41,160.36,835.99,164.04z"/>
		<path class="st2" d="M960.92,199.58v22.52h-11.8c-10.01,0-17.8-2.48-23.36-7.43c-5.57-4.95-8.35-13.15-8.35-24.59v-31.41h-11.49
			v-22.06h11.49v-20.99h26.2v20.99h17.16v22.06h-17.16v31.87c0,3.37,0.69,5.72,2.07,7.05c1.38,1.33,3.7,1.99,6.97,1.99H960.92z"/>
		<path class="st2" d="M1056.06,184.11h-59.29c0.31,6.43,1.94,11.06,4.9,13.87c2.96,2.81,6.74,4.21,11.34,4.21
			c3.88,0,7.1-0.97,9.65-2.91c2.55-1.94,4.24-4.44,5.06-7.51h27.73c-1.12,6.03-3.58,11.41-7.35,16.16
			c-3.78,4.75-8.58,8.48-14.4,11.18c-5.82,2.71-12.31,4.06-19.46,4.06c-8.38,0-15.81-1.76-22.29-5.29
			c-6.49-3.52-11.57-8.6-15.24-15.24c-3.68-6.64-5.52-14.4-5.52-23.29c0-8.99,1.81-16.78,5.44-23.36
			c3.62-6.59,8.71-11.64,15.24-15.17c6.54-3.52,13.99-5.29,22.37-5.29c8.48,0,15.93,1.74,22.37,5.21
			c6.43,3.47,11.41,8.35,14.94,14.63s5.29,13.51,5.29,21.68C1056.83,179.21,1056.57,181.56,1056.06,184.11z M1025.8,160.44
			c-3.12-2.81-6.97-4.21-11.57-4.21c-4.8,0-8.79,1.43-11.95,4.29c-3.17,2.86-4.96,7.05-5.36,12.56h33.4
			C1030.42,167.46,1028.92,163.25,1025.8,160.44z"/>
	</g>
</g>
</svg>
